<svg width="14" height="14" viewBox="0 0 14 14" fill="none" xmlns="http://www.w3.org/2000/svg">
<path fill-rule="evenodd" clip-rule="evenodd" d="M7 12.9231C10.2712 12.9231 12.9231 10.2712 12.9231 7C12.9231 3.72878 10.2712 1.07692 7 1.07692C3.72878 1.07692 1.07692 3.72878 1.07692 7C1.07692 10.2712 3.72878 12.9231 7 12.9231ZM7 14C10.866 14 14 10.866 14 7C14 3.13401 10.866 0 7 0C3.13401 0 0 3.13401 0 7C0 10.866 3.13401 14 7 14Z" fill="#CFD8E3"/>
<path d="M6.46154 4.30769H7.53846V7.53846H6.46154V4.30769Z" fill="#CFD8E3"/>
<path d="M6.46154 8.61539H7.53846V9.69231H6.46154V8.61539Z" fill="#CFD8E3"/>
</svg>
