<svg width="20" height="20" viewBox="0 0 20 20" fill="none" xmlns="http://www.w3.org/2000/svg">
<path d="M0 10C0 4.47715 4.47715 0 10 0C15.5228 0 20 4.47715 20 10C20 10.9116 19.8778 11.7959 19.6485 12.6368C19.5311 13.0674 19.0868 13.3213 18.6563 13.2039C18.2257 13.0864 17.9718 12.6422 18.0893 12.2116C18.2812 11.508 18.3838 10.7666 18.3838 10C18.3838 5.36973 14.6303 1.61616 10 1.61616C5.36973 1.61616 1.61616 5.36973 1.61616 10C1.61616 14.6303 5.36973 18.3838 10 18.3838C10.7666 18.3838 11.508 18.2812 12.2116 18.0893C12.6422 17.9718 13.0864 18.2257 13.2039 18.6563C13.3213 19.0868 13.0674 19.5311 12.6368 19.6485C11.7959 19.8778 10.9116 20 10 20C4.47715 20 0 15.5228 0 10Z" fill="#A49E94"/>
<path d="M19.6222 16.6562C19.6222 17.0877 19.2699 17.4375 18.8352 17.4375H17.0481V19.2188C17.0481 19.6502 16.6958 20 16.2611 20C15.8264 20 15.4741 19.6502 15.4741 19.2188V17.4375H13.687C13.2524 17.4375 12.9 17.0877 12.9 16.6562C12.9 16.2248 13.2524 15.875 13.687 15.875H15.4741V14.0938C15.4741 13.6623 15.8264 13.3125 16.2611 13.3125C16.6958 13.3125 17.0481 13.6623 17.0481 14.0938V15.875H18.8352C19.2699 15.875 19.6222 16.2248 19.6222 16.6562Z" fill="#A49E94"/>
<path fill-rule="evenodd" clip-rule="evenodd" d="M9.9 6.8C8.13269 6.8 6.7 8.23269 6.7 10C6.7 11.7673 8.13269 13.2 9.9 13.2C10.7121 13.2 11.4518 12.8985 12.0164 12.4002C12.3477 12.1078 12.8532 12.1394 13.1456 12.4706C13.438 12.8019 13.4065 13.3074 13.0752 13.5998C12.2295 14.3462 11.1168 14.8 9.9 14.8C7.24903 14.8 5.1 12.651 5.1 10C5.1 7.34903 7.24903 5.2 9.9 5.2C11.2202 5.2 12.4171 5.73401 13.2841 6.59592C13.5974 6.90742 13.5989 7.41395 13.2874 7.72728C12.9759 8.04062 12.4694 8.0421 12.1561 7.7306C11.5766 7.15457 10.7805 6.8 9.9 6.8Z" fill="#A49E94"/>
</svg>
