<svg width="14" height="13" viewBox="0 0 14 13" fill="none" xmlns="http://www.w3.org/2000/svg">
<path d="M5.6 6.94755V11.5858C5.6 12.4767 6.67714 12.9229 7.30711 12.2929L8.10711 11.4929C8.29464 11.3054 8.4 11.051 8.4 10.7858V6.94755C8.4 6.68233 8.50536 6.42798 8.69289 6.24044L13.8067 1.12663C13.9305 1.00287 14 0.835 14 0.659966C14 0.295477 13.7045 0 13.34 0H0.933333H0.659966C0.295477 0 0 0.295477 0 0.659966C0 0.835 0.0695318 1.00287 0.193299 1.12663L5.30711 6.24044C5.49464 6.42798 5.6 6.68233 5.6 6.94755Z" fill="#F2AF1E"/>
</svg>
