<svg width="20" height="20" viewBox="0 0 20 20" fill="none" xmlns="http://www.w3.org/2000/svg">
<path fill-rule="evenodd" clip-rule="evenodd" d="M5.52734 9.49219C7.71707 9.49219 9.49219 7.71707 9.49219 5.52734C9.49219 3.33762 7.71707 1.5625 5.52734 1.5625C3.33762 1.5625 1.5625 3.33762 1.5625 5.52734C1.5625 7.71707 3.33762 9.49219 5.52734 9.49219ZM5.52734 11.0547C8.58001 11.0547 11.0547 8.58001 11.0547 5.52734C11.0547 2.47468 8.58001 0 5.52734 0C2.47468 0 0 2.47468 0 5.52734C0 8.58001 2.47468 11.0547 5.52734 11.0547Z" fill="#322E27"/>
<path fill-rule="evenodd" clip-rule="evenodd" d="M7.07031 18.4375C8.0627 18.4375 8.86719 17.633 8.86719 16.6406C8.86719 15.6482 8.0627 14.8438 7.07031 14.8438C6.07793 14.8438 5.27344 15.6482 5.27344 16.6406C5.27344 17.633 6.07793 18.4375 7.07031 18.4375ZM7.07031 20C8.92564 20 10.4297 18.496 10.4297 16.6406C10.4297 14.7853 8.92564 13.2812 7.07031 13.2812C5.21498 13.2812 3.71094 14.7853 3.71094 16.6406C3.71094 18.496 5.21498 20 7.07031 20Z" fill="#322E27"/>
<path fill-rule="evenodd" clip-rule="evenodd" d="M15.293 15.1562C17.0296 15.1562 18.4375 13.7484 18.4375 12.0117C18.4375 10.275 17.0296 8.86719 15.293 8.86719C13.5563 8.86719 12.1484 10.275 12.1484 12.0117C12.1484 13.7484 13.5563 15.1562 15.293 15.1562ZM15.293 16.7188C17.8926 16.7188 20 14.6113 20 12.0117C20 9.4121 17.8926 7.30469 15.293 7.30469C12.6933 7.30469 10.5859 9.4121 10.5859 12.0117C10.5859 14.6113 12.6933 16.7188 15.293 16.7188Z" fill="#322E27"/>
<path fill-rule="evenodd" clip-rule="evenodd" d="M4.64844 3.95167C5.02211 3.73594 5.49991 3.86396 5.71565 4.23763L6.73127 5.99675C6.94701 6.37041 6.81898 6.84822 6.44531 7.06395C6.07165 7.27969 5.59384 7.15166 5.37811 6.778L4.36248 5.01888C4.14675 4.64522 4.27477 4.16741 4.64844 3.95167Z" fill="#322E27"/>
</svg>
