<svg width="14" height="14" viewBox="0 0 14 14" fill="none" xmlns="http://www.w3.org/2000/svg">
<path d="M4.37112e-08 0H1V14H4.37112e-08V0Z" fill="#CFD8E3"/>
<path d="M14 0V1L0 0.999999L4.37112e-08 0H14Z" fill="#CFD8E3"/>
<path d="M14 4V5L0 5L4.37112e-08 4L14 4Z" fill="#CFD8E3"/>
<path d="M14 7V8L0 8L4.37112e-08 7L14 7Z" fill="#CFD8E3"/>
<path d="M14 10V11L0 11L4.37112e-08 10L14 10Z" fill="#CFD8E3"/>
<path d="M14 13V14H4.37112e-08V13L14 13Z" fill="#CFD8E3"/>
<path d="M7 0H8V14H7V0Z" fill="#CFD8E3"/>
<path d="M10 0H11V14H10V0Z" fill="#CFD8E3"/>
<path d="M13 0H14V14H13V0Z" fill="#CFD8E3"/>
</svg>
